<?xml version="1.0" encoding="UTF-8" standalone="no"?>
<svg
   xmlns:dc="http://purl.org/dc/elements/1.1/"
   xmlns:cc="http://creativecommons.org/ns#"
   xmlns:rdf="http://www.w3.org/1999/02/22-rdf-syntax-ns#"
   xmlns:svg="http://www.w3.org/2000/svg"
   xmlns="http://www.w3.org/2000/svg"
   width="210mm"
   height="297mm"
   viewBox="0 0 210 297"
   version="1.1"
   id="svg8">
  <defs
     id="defs2" />
  <metadata
     id="metadata5">
    <rdf:RDF>
      <cc:Work
         rdf:about="">
        <dc:format>image/svg+xml</dc:format>
        <dc:type
           rdf:resource="http://purl.org/dc/dcmitype/StillImage" />
        <dc:title></dc:title>
      </cc:Work>
    </rdf:RDF>
  </metadata>
  <g
     id="layer1">
    <path
       style="fill:#000000;fill-opacity:1;stroke-width:0.264583"
       d="m 92.054357,277.61924 c -5.803898,-0.76419 -9.571618,-2.60336 -13.066728,-6.37841 -5.26086,-5.68221 -7.46542,-15.61392 -6.78468,-30.56555 0.39507,-8.67742 0.6252,-11.30928 2.12555,-24.30909 0.35716,-3.09462 2.01487,-15.42002 2.50876,-18.65312 1.68756,-11.04709 2.37197,-18.94636 1.9913,-22.98296 -0.51202,-5.42959 -1.88394,-8.80351 -4.61722,-11.355 -3.67224,-3.42799 -8.48764,-4.63677 -21.31532,-5.35063 -17.74298,-0.9874 -19.30303,-1.16999 -22.94288,-2.68526 -6.13078,-2.55225 -10.80101,-7.79644 -13.52681,-15.18919 -0.64212,-1.74153 -1.71752,-5.7083 -2.31221,-8.52893 -0.4212,-1.99778 -0.94933,-7.21183 -1.17122,-11.56322 -0.39678,-7.78083 -0.34718,-101.013664 0.054,-101.414796 0.17462,-0.174625 0.57516,-0.3175 0.89009,-0.3175 0.44005,0 0.68254,-0.290921 1.04754,-1.25677 0.26122,-0.691224 0.87261,-2.134631 1.35865,-3.207571 1.04003,-2.295867 1.26096,-2.260276 2.18306,0.351686 0.33618,0.952273 0.68747,1.727724 0.78064,1.723224 0.0932,-0.0045 0.55565,-0.521263 1.02775,-1.148364 0.47209,-0.627102 1.1109,-1.427092 1.41957,-1.777757 0.30867,-0.350665 0.73977,-0.905463 0.95801,-1.232885 0.21824,-0.327422 0.47988,-0.595312 0.58143,-0.595312 0.10155,0 1.05897,1.067084 2.1276,2.371299 1.06864,1.304215 2.03023,2.317371 2.13688,2.251458 0.10665,-0.06591 0.26612,-0.407574 0.35439,-0.759249 0.0883,-0.351674 0.4038,-1.207057 0.7012,-1.90085 0.69507,-1.621531 0.91062,-1.422732 2.44999,2.259578 1.0509,2.513845 1.2334,2.786892 1.99455,2.984127 l 0.83781,0.2171 v 3.167435 3.167434 h 4.36563 4.36562 v -4.20465 -4.20465 l -0.68025,-0.170733 c -0.79477,-0.199474 -0.72702,-0.774696 0.10567,-0.897222 0.52064,-0.07661 0.57458,-0.242545 0.57458,-1.767536 0,-1.54388 -0.0492,-1.689976 -0.59531,-1.767535 -1.53317,-0.217745 0.38196,-1.525551 2.24896,-1.535773 0.65726,-0.0036 0.72761,-0.09539 0.72761,-0.949425 0,-0.757447 0.0921,-0.928001 0.46302,-0.857729 0.30494,0.05777 0.49132,0.380542 0.54593,0.945442 0.0729,0.754691 0.17667,0.857729 0.86348,0.857729 0.42932,0 0.98732,0.110371 1.24001,0.245269 0.25269,0.134898 0.66779,0.309755 0.92245,0.388571 0.62512,0.193472 0.58644,0.706342 -0.0661,0.876997 -0.45945,0.120149 -0.52917,0.360896 -0.52917,1.827313 0,1.512544 0.0553,1.688933 0.52917,1.688933 0.6869,0 0.6869,0.708029 0,0.926042 -0.5,0.158692 -0.52917,0.400323 -0.52917,4.383454 v 4.215503 h 4.8948 4.89479 V 20.29496 15.649753 l 3.61211,-4.350626 c 1.98667,-2.392844 3.74284,-4.3447812 3.90261,-4.3376382 0.15977,0.0071 1.86807,1.9317252 3.79622,4.2768502 l 3.50573,4.263863 v 4.727648 4.727648 l 2.97656,-0.07481 2.97656,-0.07481 0.0781,-1.781474 0.0781,-1.781474 1.24479,-0.84109 c 0.68463,-0.4626 1.28261,-0.869548 1.32885,-0.904329 0.0462,-0.03478 0.11803,-0.540065 0.15954,-1.122851 0.0788,-1.106591 0.85591,-2.710637 1.40126,-2.892418 0.39039,-0.13013 1.16402,1.586393 1.28059,2.841344 0.0473,0.509323 0.093,0.997257 0.10163,1.084296 0.009,0.08704 0.4621,0.349403 1.00781,0.58303 0.84441,0.361512 2.11525,0.416754 8.532798,0.370913 l 7.540633,-0.05386 0.073,-4.364892 0.073,-4.364893 1.50621,-1.522086 c 0.82841,-0.837148 1.63989,-1.522086 1.80328,-1.522086 0.16339,0 1.03032,0.763601 1.92651,1.69689 l 1.62944,1.696891 v 6.514144 6.514143 l 2.84427,-0.0751 2.84427,-0.0751 0.0839,-0.873345 c 0.0696,-0.724564 0.35013,-1.062618 1.64661,-1.984375 l 1.56269,-1.11103 0.007,-5.233825 c 0.006,-4.60798 0.0591,-5.253784 0.44203,-5.400747 0.28926,-0.110998 0.60691,0.06907 0.94811,0.537471 0.64107,0.880046 1.12732,0.892444 1.68394,0.04293 0.23837,-0.363802 0.58461,-0.661458 0.76942,-0.661458 0.18481,0 0.53105,0.297656 0.76942,0.661458 0.54902,0.837914 0.87612,0.831599 1.77999,-0.03437 0.43436,-0.416135 0.89217,-0.632174 1.13896,-0.53747 0.35384,0.135779 0.41267,0.876261 0.41267,5.193743 v 5.035387 h 5.29167 5.29167 v -0.91611 c 0,-1.171785 0.99063,-3.837016 1.49863,-4.031952 0.23676,-0.09085 0.676,0.195044 1.12384,0.731491 l 0.73519,0.880632 0.18657,-1.40642 c 0.14194,-1.069982 0.41831,-1.683657 1.15532,-2.565361 0.53281,-0.637417 1.04155,-1.15894 1.13052,-1.15894 0.089,0 0.65908,0.611341 1.26689,1.358535 0.92086,1.132026 1.10512,1.551111 1.10512,2.513542 0,1.356502 0.23848,1.453963 0.88395,0.361256 0.25789,-0.436563 0.62608,-0.79375 0.81822,-0.79375 0.5739,0 1.54946,2.631563 1.66744,4.497916 0.0598,0.945886 0.2786,1.983494 0.48622,2.305796 0.20763,0.322302 0.3775,1.006911 0.3775,1.521354 v 0.93535 h 3.04271 3.04271 v -1.719791 c 0,-1.797453 0.0571,-1.87159 1.36287,-1.769473 0.24148,0.01888 0.93624,-0.613165 1.55353,-1.413287 0.61419,-0.796097 1.25105,-1.445946 1.41526,-1.44411 0.1642,0.0018 0.86247,0.646384 1.5517,1.432328 1.77825,2.027775 2.16535,1.882901 2.26299,-0.84695 l 0.0765,-2.140348 2.02815,-1.803871 c 1.11548,-0.99213 2.72349,-2.434819 3.57335,-3.205977 l 1.54521,-1.402104 1.25478,1.005229 c 0.69013,0.552876 2.41393,1.952023 3.83067,3.109216 l 2.57588,2.103986 -0.0863,54.25226 c -0.0861,54.128458 -0.0876,54.260558 -0.65925,57.883718 -2.35248,14.91138 -7.6754,23.29164 -17.12486,26.96087 -2.82414,1.09662 -5.73453,1.44473 -17.33132,2.07298 -10.97603,0.59462 -13.57323,0.83418 -17.46251,1.6107 -8.57594,1.71226 -12.30509,5.95083 -13.24568,15.05512 -0.47067,4.55581 -0.0744,8.76469 2.75374,29.25012 2.29466,16.62108 2.90702,21.96329 3.47754,30.33792 0.5077,7.45253 0.51797,16.61932 0.0231,20.60858 -1.61705,13.03536 -6.84994,20.14137 -16.53575,22.45478 -2.567733,0.61328 -7.092383,0.87482 -9.545863,0.55176 z m 9.644163,-1.58562 c 11.91231,-3.07393 16.73351,-13.97189 15.76936,-35.64545 -0.15402,-3.46219 -0.39712,-7.48552 -0.54023,-8.94073 -0.14312,-1.4552 -0.4468,-4.55083 -0.67486,-6.87916 -0.22805,-2.32834 -0.65224,-6.0788 -0.94263,-8.33438 -0.29039,-2.25557 -0.63479,-4.99401 -0.76533,-6.08541 -0.13055,-1.09141 -0.53557,-4.06797 -0.90005,-6.61459 -1.612,-11.26301 -2.27441,-16.21862 -2.56118,-19.1606 -0.39955,-4.09902 -0.17773,-11.85917 0.40513,-14.17288 1.46897,-5.83126 5.32722,-9.7183 11.25729,-11.34131 3.84345,-1.05192 9.47,-1.64 20.63751,-2.15699 3.27421,-0.15157 7.26281,-0.38726 8.86354,-0.52375 8.09937,-0.69059 13.58521,-3.72023 17.65377,-9.74957 4.23638,-6.27803 6.82019,-16.79184 6.82019,-27.75209 v -4.04279 H 95.190117 13.659209 l 0.18455,4.03489 c 0.82107,17.95067 4.96072,28.67075 13.10627,33.94008 4.55468,2.9464 7.37623,3.50908 20.52203,4.09249 14.95116,0.66354 21.05791,1.66248 25.13757,4.112 1.89761,1.13937 2.81469,1.97194 3.92377,3.56219 2.42875,3.48246 3.35012,7.21794 3.35012,13.58232 0,5.03516 -0.4238,8.82507 -2.91917,26.10518 -0.92283,6.39053 -2.34662,18.25819 -2.88858,24.07708 -1.58274,16.99377 -1.23119,27.00388 1.20725,34.37537 2.64402,7.99295 7.53195,12.38711 15.47555,13.91223 2.710058,0.5203 8.156688,0.32408 10.939951,-0.39413 z m -8.322963,-10.02484 c -2.207618,-0.72426 -3.750258,-2.2129 -4.498088,-4.34063 -0.63513,-1.80704 -0.65529,-2.57382 -0.11547,-4.39158 1.15236,-3.88044 5.780088,-5.91049 9.511988,-4.17263 2.494083,1.16143 3.898643,3.40443 3.918143,6.25704 0.0181,2.65034 -1.35957,4.9679 -3.655483,6.1493 -1.14964,0.59155 -4.02957,0.86972 -5.16109,0.4985 z m 4.49931,-1.35597 c 1.89402,-0.96626 2.998513,-2.47693 3.304953,-4.52037 0.35999,-2.40063 -1.01682,-5.01965 -3.192503,-6.07288 -1.69915,-0.82255 -4.35585,-0.66846 -5.88143,0.34113 -2.190818,1.44981 -3.230668,4.54585 -2.324098,6.91969 0.51285,1.34286 1.81599,2.77729 3.095908,3.40779 1.2667,0.62399 3.69822,0.58732 4.99717,-0.0754 z m -5.02676,-24.95469 c 0,-0.046 0.12513,-0.79018 0.27807,-1.65365 0.59973,-3.38601 2.05013,-6.90233 3.78393,-9.17374 0.5087,-0.66644 0.85458,-1.28205 0.76861,-1.36802 -0.086,-0.086 -1.62475,-0.15631 -3.4195,-0.15631 h -3.263198 v -0.79375 -0.79375 h 4.497918 4.49792 v 0.67046 c 0,0.36889 -0.5921,1.53931 -1.31634,2.60207 -0.72398,1.06238 -1.67376,2.69543 -2.11061,3.62901 -0.81577,1.74337 -1.86472,5.40102 -1.86472,6.50224 0,0.5312 -0.13154,0.61914 -0.92604,0.61914 -0.50933,0 -0.92604,-0.0377 -0.92604,-0.0837 z m 2.91041,-27.56526 c 0,-2.98318 -0.0451,-5.42396 -0.10023,-5.42396 -0.0551,0 -0.79227,0.41672 -1.63809,0.92605 -0.84581,0.50932 -1.63414,0.92604 -1.75184,0.92604 -0.1177,0 -0.214,-0.2841 -0.214,-0.63133 0,-0.46442 0.40994,-0.93145 1.55066,-1.7666 0.85286,-0.6244 1.7756,-1.47106 2.05052,-1.88146 0.30053,-0.44862 0.73725,-0.74648 1.09517,-0.74693 l 0.59531,-7.7e-4 v 7.01146 7.01146 h -0.79375 -0.79375 z m -2.56901,-17.05623 c -1.523848,-0.92914 -2.027688,-2.34172 -2.144428,-6.01214 -0.12284,-3.86241 0.27371,-5.43515 1.682238,-6.67187 2.45288,-2.15365 5.8508,-0.98573 6.8419,2.35168 0.478673,1.61184 0.552873,5.33626 0.14184,7.11921 -0.31403,1.3622 -1.44732,3.05532 -2.31134,3.45309 -1.01158,0.46571 -3.26334,0.33737 -4.21021,-0.23997 z m 3.89689,-1.53075 c 0.72623,-0.65473 0.83611,-0.96629 1.09722,-3.11091 0.64532,-5.30039 -1.03771,-8.75785 -3.64901,-7.49621 -1.43043,0.69111 -1.8188,1.84024 -1.8188,5.3816 0,3.66786 0.16012,4.43606 1.10767,5.31422 0.95416,0.88428 2.22191,0.84982 3.26292,-0.0887 z m -6.353968,-20.76979 c 0.002,-1.22381 0.93546,-2.39203 4.077078,-5.10258 2.43255,-2.09878 3.33026,-3.35833 3.33026,-4.67258 0,-1.5384 -0.89854,-2.32952 -2.64583,-2.32952 -1.49825,0 -2.47586,0.68585 -2.79605,1.96158 -0.13518,0.53859 -0.33459,0.68425 -0.936798,0.68425 -0.88299,0 -1.01506,-0.60412 -0.39333,-1.79908 0.901538,-1.73273 2.877228,-2.64195 5.037048,-2.31807 2.22902,0.33426 3.872543,2.45746 3.44371,4.44879 -0.3814,1.7711 -1.08305,2.65382 -4.55302,5.72805 -1.20055,1.06363 -2.18281,2.04032 -2.18281,2.17042 0,0.13011 1.54781,0.23656 3.43958,0.23656 h 3.43959 v 0.79375 0.79375 h -4.63021 c -4.625598,0 -4.630208,-5.3e-4 -4.629218,-0.59532 z m 16.194781,-24.53743 c -1.10403,-0.50108 -1.90827,-1.66947 -1.90827,-2.7723 0,-0.74034 0.99016,-0.45243 1.27735,0.37141 0.5503,1.57856 3.22268,2.15557 4.42322,0.95504 1.33418,-1.33418 0.63714,-2.40443 -2.16251,-3.32034 -1.00005,-0.32717 -2.08434,-0.83701 -2.40953,-1.13298 -0.80425,-0.73198 -1.00089,-1.99482 -0.49801,-3.19836 0.95845,-2.29391 5.02124,-2.30366 6.10745,-0.0147 0.52957,1.116 0.51211,1.34709 -0.11418,1.51087 -0.36976,0.0967 -0.56988,-0.0281 -0.69275,-0.43217 -0.33368,-1.09713 -0.9227,-1.49461 -2.20174,-1.48576 -1.28923,0.009 -1.92348,0.3369 -2.23035,1.15335 -0.34035,0.90554 0.46445,1.65055 2.42695,2.24664 2.48749,0.75555 3.48243,1.6917 3.48243,3.27664 0,1.39855 -0.7123,2.45779 -2.0203,3.0043 -1.18359,0.49454 -2.13088,0.45052 -3.47976,-0.16169 z m 34.13542,0.10492 c -1.51813,-0.66362 -2.62176,-3.28259 -1.38327,-3.28259 0.30545,0 0.52917,0.17639 0.52917,0.41723 0,0.22947 0.34802,0.76525 0.77339,1.19062 0.5967,0.5967 1.01491,0.7734 1.83045,0.7734 1.42693,0 1.84488,-0.19574 2.3009,-1.07758 0.7434,-1.43758 -0.15027,-2.30298 -3.23636,-3.13398 -2.69299,-0.72514 -3.34462,-3.93138 -1.07967,-5.31232 1.97819,-1.2061 4.84398,-0.20091 5.36348,1.88126 0.1272,0.50983 0.0568,0.73619 -0.26785,0.86075 -0.54133,0.20773 -0.92184,-0.003 -0.92184,-0.50978 0,-0.78974 -1.01522,-1.43959 -2.24896,-1.43959 -1.80778,0 -2.81647,1.28402 -1.91823,2.44182 0.1819,0.23447 1.13114,0.66906 2.10942,0.96577 2.12587,0.64475 2.93078,1.13459 3.3399,2.03252 1.32681,2.91202 -1.99036,5.59134 -5.19053,4.19247 z M 26.173099,143.05385 v -5.44672 l 3.0662,0.0889 c 2.98307,0.0865 3.08349,0.10903 3.70416,0.83127 0.47935,0.55778 0.63798,1.05297 0.63798,1.99165 0,1.44794 -0.4506,2.21902 -1.56697,2.68143 l -0.79429,0.329 0.75783,0.96424 c 0.4168,0.53032 1.13804,1.64883 1.60275,2.48558 l 0.84494,1.52135 -0.75286,-0.006 c -0.65405,-0.005 -0.88906,-0.24827 -1.79056,-1.85104 -1.49317,-2.65472 -1.78114,-2.90535 -3.33823,-2.90535 h -1.31261 v 2.38125 c 0,2.20486 -0.0392,2.38125 -0.52917,2.38125 -0.51203,0 -0.52917,-0.17639 -0.52917,-5.44672 z m 5.72591,-1.31347 c 0.52126,-0.52125 0.63634,-0.83727 0.50586,-1.38905 -0.29799,-1.2601 -1.044,-1.64033 -3.21837,-1.64033 h -1.95506 v 1.85208 1.85208 h 1.9964 c 1.78722,0 2.0671,-0.0707 2.67117,-0.67478 z m 4.59284,1.33624 v -5.42395 h 0.66146 c 0.65368,0 0.66146,0.0265 0.66146,2.24896 v 2.24894 h 2.38125 c 2.08161,0 2.38451,-0.0583 2.40714,-0.46302 0.0142,-0.25466 0.044,-1.23691 0.0662,-2.1828 0.0367,-1.56771 0.0929,-1.72727 0.63557,-1.80434 l 0.59531,-0.0845 v 5.46076 5.46076 l -0.59531,-0.0846 c -0.56737,-0.0806 -0.59661,-0.20255 -0.62287,-2.59809 l -0.0276,-2.51354 -2.41984,-0.0761 -2.41984,-0.0761 v 2.65576 2.65576 h -0.66146 -0.66145 z m 10.31875,0 v -5.42395 h 3.43959 c 3.26319,0 3.43958,0.0271 3.43958,0.52916 0,0.49557 -0.17639,0.52917 -2.77812,0.52917 h -2.77813 l -2.6e-4,1.78594 -2.7e-4,1.78593 h 2.58005 c 2.47417,0 2.58353,0.0244 2.6646,0.59531 0.0829,0.58354 0.0319,0.59531 -2.57968,0.59531 h -2.66444 l -2.6e-4,1.91823 -2.7e-4,1.91823 h 2.8446 c 2.74852,0 2.84746,0.0201 2.92915,0.59531 0.0841,0.59227 0.0662,0.59531 -3.50573,0.59531 h -3.59041 z m 9.78959,0 v -5.42395 h 0.66146 0.66145 v 5.42395 5.42395 h -0.66145 -0.66146 z m 4.23333,0 v -5.42395 l 0.72761,0.0125 c 0.6584,0.0113 0.94112,0.39092 2.97265,3.99159 1.23478,2.18851 2.33611,4.03539 2.4474,4.10417 0.11129,0.0688 0.20234,-1.72744 0.20234,-3.99161 0,-3.94025 0.0227,-4.11664 0.52917,-4.11664 0.51196,0 0.52916,0.17639 0.52916,5.42395 v 5.42395 l -0.59531,-0.002 c -0.41212,-0.002 -0.76457,-0.30683 -1.14536,-0.99219 -0.30253,-0.5445 -1.40386,-2.46989 -2.4474,-4.27865 l -1.89734,-3.2887 v 4.28082 4.28083 h -0.66146 -0.66146 z m 10.58334,0 v -5.42395 h 3.175 c 2.97909,0 3.175,0.0321 3.175,0.51958 0,0.47569 -0.21796,0.52599 -2.57969,0.59532 l -2.57969,0.0757 v 1.71979 1.71979 l 2.18281,0.0768 c 1.96527,0.0692 2.18282,0.12852 2.18282,0.59531 0,0.47424 -0.19186,0.51847 -2.24896,0.51847 h -2.24896 v 2.51354 c 0,2.33715 -0.0371,2.51354 -0.52917,2.51354 -0.51196,0 -0.52916,-0.17639 -0.52916,-5.42395 z m 8.38453,1.26923 c 0.7697,-2.29881 1.59113,-4.75196 1.82539,-5.45145 0.37754,-1.12733 0.50408,-1.26259 1.11385,-1.19063 0.74081,0.0874 0.5441,-0.36108 3.48786,7.95253 l 1.00712,2.84427 h -0.71468 c -0.64387,0 -0.7671,-0.16385 -1.24365,-1.65364 l -0.52896,-1.65365 h -1.96829 -1.96829 l -0.56119,1.5875 c -0.4576,1.29446 -0.68002,1.60201 -1.2049,1.66611 l -0.64371,0.0786 z m 4.45352,-0.80621 c -0.10073,-0.25467 -0.48966,-1.38618 -0.8643,-2.51448 l -0.68116,-2.05145 -0.74832,2.31603 c -0.41157,1.27382 -0.74975,2.40534 -0.7515,2.51448 -0.002,0.10914 0.72392,0.19844 1.61262,0.19844 1.43224,0 1.595,-0.0526 1.43266,-0.46302 z m 4.75674,-0.4624 v -5.42368 l 0.59531,-5.3e-4 c 0.59528,-5.3e-4 0.59531,-2e-4 0.59531,4.75174 v 4.7522 l 2.315108,0.0765 c 2.17247,0.0717 2.32031,0.11312 2.39965,0.67176 0.0834,0.58727 0.0441,0.59531 -2.91042,0.59549 l -2.994958,1.9e-4 v -5.4237 z m 8.069788,-5.2e-4 v -5.42395 h 0.66146 0.66146 v 4.76249 4.7625 h 2.233343 c 2.26771,0 2.65851,0.1488 2.36942,0.90216 -0.13392,0.34888 -0.65308,0.42065 -3.043573,0.42065 h -2.88211 v -5.42395 z m 17.991673,0 v -5.42395 h 2.50109 c 1.3756,0 2.79861,0.13556 3.16225,0.30124 1.2928,0.58904 1.87507,2.9306 1.10098,4.42751 -0.63253,1.22318 -1.14538,1.46496 -3.42201,1.61332 l -2.15169,0.14011 -0.0768,2.18281 c -0.0692,1.96526 -0.12852,2.18281 -0.59532,2.18281 -0.49803,0 -0.51846,-0.2137 -0.51846,-5.42395 z m 5.30444,-0.80532 c 0.61176,-0.55363 0.69706,-2.15375 0.15438,-2.8959 -0.29457,-0.40285 -0.72583,-0.49853 -2.3151,-0.51359 l -1.9531,-0.0186 -0.0798,1.69192 c -0.1164,2.46893 -0.086,2.50548 1.95005,2.34205 1.12265,-0.0901 1.90788,-0.3022 2.24353,-0.60596 z m 4.48514,0.80522 v -5.42395 h 0.66146 0.66146 v 5.42395 5.42395 h -0.66146 -0.66146 z m 4.23333,0 v -5.42395 h 0.63871 c 0.54755,0 0.99121,0.613 3.10885,4.29555 l 2.47015,4.29557 0.0727,-4.29557 c 0.069,-4.07667 0.0993,-4.29555 0.59532,-4.29555 0.50343,0 0.52261,0.19906 0.52261,5.42395 v 5.42395 h -0.63053 c -0.53678,0 -0.99904,-0.6393 -3.10885,-4.29948 l -2.47833,-4.29946 -0.0727,4.29946 c -0.069,4.08058 -0.0993,4.29948 -0.59531,4.29948 -0.50344,0 -0.52262,-0.19906 -0.52262,-5.42395 z m 20.10834,0 v -5.42395 h 3.45118 c 3.14007,0 3.44417,0.0417 3.37344,0.46302 -0.0666,0.39647 -0.47704,0.48203 -2.85587,0.59531 l -2.77813,0.13229 -0.0788,1.65365 -0.0788,1.65363 h 2.65846 2.65846 v 0.66146 0.66146 h -2.64583 -2.64584 v 1.85208 1.85209 h 2.91042 2.91042 v 0.66145 0.66146 h -3.43959 -3.43958 z m 9.525,0 c 0,-5.24756 0.0172,-5.42395 0.52917,-5.42395 0.50952,0 0.52916,0.17639 0.52916,4.75219 v 4.75219 l 2.31511,0.0764 c 2.17247,0.0717 2.32031,0.11312 2.39965,0.67176 0.0833,0.5866 0.0417,0.59531 -2.84427,0.59531 h -2.92882 z M 29.398309,133.32597 c -1.38272,-0.76729 -2.26256,-3.34622 -1.14161,-3.34622 0.33952,0 0.54618,0.25046 0.65481,0.7936 0.21441,1.07207 1.57599,1.92481 2.78451,1.7439 1.22967,-0.18407 1.88542,-0.8487 1.88542,-1.91095 0,-1.02451 -0.45973,-1.38884 -2.642,-2.09374 -2.64827,-0.85542 -3.62008,-2.68025 -2.46696,-4.63233 0.95761,-1.6211 3.82628,-1.7723 5.16652,-0.27232 0.84479,0.94549 0.998,2.14175 0.27317,2.13278 -0.25938,-0.003 -0.63758,-0.37978 -0.8599,-0.8562 -0.94211,-2.01887 -4.40739,-1.18634 -3.87592,0.93119 0.12898,0.51391 0.47832,0.78926 1.42802,1.12559 3.75819,1.33093 4.16445,1.74953 4.06587,4.18942 -0.0193,0.47748 -0.36043,1.08402 -0.93005,1.65364 -0.80266,0.80266 -1.0521,0.89858 -2.31511,0.89021 -0.77853,-0.005 -1.69058,-0.16201 -2.02677,-0.34857 z m 9.52294,-0.17927 c -1.33845,-0.81602 -2.02475,-2.56275 -2.02399,-5.15132 0.001,-3.41973 1.20609,-5.12571 3.77682,-5.34668 1.54075,-0.13244 2.76796,0.5572 3.41828,1.92092 0.39107,0.8201 0.39928,0.97552 0.0627,1.18838 -0.57005,0.36055 -0.60467,0.33909 -1.18094,-0.73174 -1.04237,-1.93694 -3.49572,-1.73804 -4.50602,0.36531 -0.60613,1.26193 -0.63142,4.04807 -0.0493,5.4275 0.22553,0.53438 0.71995,1.17466 1.09873,1.42285 1.33956,0.87771 3.34357,-0.002 3.75703,-1.6495 0.0908,-0.36168 0.3524,-0.61267 0.63864,-0.61267 0.73863,0 0.79043,0.31797 0.24887,1.5276 -0.90713,2.02613 -3.35208,2.79092 -5.24088,1.63935 z m 8.01493,0.21824 c -0.0756,-0.19694 -0.10498,-2.67629 -0.0653,-5.50965 0.0693,-4.95117 0.0926,-5.15158 0.60123,-5.15158 0.48302,0 0.53583,0.20187 0.60561,2.3151 l 0.0764,2.31511 h 2.23865 2.23866 v -2.22065 c 0,-1.82883 0.0778,-2.25052 0.44112,-2.38993 0.24262,-0.0931 0.54286,-0.0675 0.66721,0.0568 0.12435,0.12435 0.19374,2.5988 0.15419,5.49878 -0.0692,5.07233 -0.092,5.27269 -0.60106,5.27269 -0.48781,0 -0.53508,-0.20164 -0.60489,-2.57969 l -0.0757,-2.57969 h -2.2298 -2.2298 l -0.0757,2.57662 c -0.065,2.20978 -0.14176,2.58926 -0.53954,2.66539 -0.25511,0.0488 -0.52566,-0.0724 -0.60124,-0.26932 z m 11.02404,-0.35186 c -1.07651,-0.90581 -1.39573,-2.58769 -1.30217,-6.86062 0.0636,-2.9069 0.137,-3.40818 0.50655,-3.4621 0.38008,-0.0555 0.4455,0.43546 0.54321,4.07619 0.0668,2.48976 0.23648,4.36803 0.42575,4.71336 0.68969,1.25843 3.36876,1.30957 4.02846,0.0769 0.14245,-0.26617 0.259,-2.3174 0.259,-4.55829 0,-2.24088 0.0664,-4.14076 0.14761,-4.22195 0.0812,-0.0812 0.39095,-0.084 0.68836,-0.006 0.52113,0.13628 0.53703,0.29113 0.43828,4.2707 -0.1108,4.46543 -0.34675,5.35387 -1.64829,6.20667 -1.06237,0.69609 -3.12111,0.57788 -4.08676,-0.23466 z m 10.8108,-4.22395 v -4.8948 h -1.45521 c -1.3594,0 -1.45521,-0.0418 -1.45521,-0.63459 v -0.63458 l 3.43959,0.002 3.43958,0.002 v 0.63213 c 0,0.58999 -0.0974,0.63228 -1.45521,0.63228 h -1.45521 v 4.8948 c 0,4.7184 -0.0191,4.89479 -0.52916,4.89479 -0.5101,0 -0.52917,-0.17639 -0.52917,-4.89479 z m 5.47558,4.72592 c -0.47032,-0.47032 0.01,-1.46447 2.57439,-5.33043 l 2.75831,-4.15799 -2.49372,-0.0757 c -2.22604,-0.0676 -2.49372,-0.12846 -2.49372,-0.56701 0,-0.66322 0.2243,-0.7137 3.50572,-0.78896 l 2.84428,-0.0652 v 0.76824 c 0,0.53033 -0.78856,1.95023 -2.54629,4.58493 -1.40046,2.09917 -2.60383,3.9655 -2.67414,4.1474 -0.0974,0.25192 0.54531,0.33073 2.69698,0.33073 2.77812,0 2.82344,0.01 2.74028,0.59531 -0.0819,0.57667 -0.1886,0.59762 -3.40636,0.66898 -1.82701,0.0405 -3.40458,-0.009 -3.50573,-0.11024 z m 9.06762,-0.15372 c -0.005,-0.18638 -0.0173,-2.66059 -0.0277,-5.49825 l -0.0188,-5.15937 2.60735,-0.0773 c 3.12934,-0.0928 3.79798,0.0381 3.79798,0.74385 0,0.4875 -0.18487,0.52412 -2.64583,0.52412 h -2.64583 v 1.7198 1.71979 h 2.53194 c 2.47438,0 2.53002,0.0135 2.4474,0.59531 -0.0798,0.56186 -0.2221,0.59959 -2.53195,0.67139 l -2.44739,0.0761 v 1.84216 1.84215 h 2.79652 c 2.74877,0 2.79509,0.0102 2.71198,0.59531 -0.0817,0.57561 -0.19182,0.59777 -3.32569,0.66961 -2.49321,0.0571 -3.2432,-0.004 -3.25003,-0.26459 z m 9.004718,-5.15796 c 0,-5.24713 0.025,-5.52122 0.50645,-5.55749 0.39437,-0.0297 1.02379,0.90526 2.84427,4.225 l 2.33782,4.26316 0.13229,-4.21517 c 0.11022,-3.51162 0.19854,-4.21516 0.52917,-4.21516 0.33778,0 0.40753,0.82033 0.46845,5.50922 0.0715,5.50482 0.0711,5.50915 -0.49689,5.42395 -0.5878,-0.0882 -1.23198,-1.09776 -3.83813,-6.01539 l -1.29281,-2.43943 -0.13229,4.18162 c -0.11739,3.71061 -0.18444,4.19161 -0.59531,4.27033 -0.42901,0.0822 -0.46302,-0.31671 -0.46302,-5.43064 z m 9.701393,5.30416 c -0.097,-0.097 -0.17639,-2.52391 -0.17639,-5.3931 0,-4.94235 0.027,-5.22378 0.51385,-5.35109 0.28261,-0.0739 0.58027,-0.0679 0.66146,0.0132 0.0812,0.0812 0.14761,2.2709 0.14761,4.86602 v 4.71841 h 2.10105 c 2.13984,0 2.52388,0.15488 2.23712,0.90217 -0.13227,0.3447 -0.62656,0.42075 -2.73488,0.42075 -1.41539,0 -2.65281,-0.0794 -2.74982,-0.17639 z m 9.18474,-0.32886 c -0.45393,-0.2768 -0.95995,-0.88943 -1.12448,-1.36141 -0.33216,-0.95285 -0.42256,-9.24836 -0.10071,-9.24179 0.70996,0.0145 0.82477,0.59164 0.9065,4.55693 0.0804,3.90209 0.12228,4.19358 0.68233,4.75295 0.81996,0.81895 2.48498,0.81877 3.30462,-2.7e-4 0.55735,-0.55699 0.60536,-0.87899 0.72894,-4.88877 0.11035,-3.58038 0.19814,-4.29251 0.52917,-4.29251 0.3318,0 0.40919,0.65074 0.47198,3.96875 0.0864,4.56488 -0.23483,5.94466 -1.54121,6.62022 -1.05306,0.54455 -2.86497,0.491 -3.85714,-0.11401 z m 9.47451,-0.0307 c -0.90221,-0.55006 -1.77858,-2.15495 -1.53019,-2.80223 0.21927,-0.57141 0.89579,-0.42981 1.09567,0.22932 0.25657,0.84605 1.11614,1.71303 1.89124,1.90757 1.79593,0.45075 3.52815,-1.24676 2.64605,-2.59302 -0.40058,-0.61136 -0.61954,-0.72512 -3.1747,-1.64939 -1.57683,-0.57039 -2.03663,-1.20309 -2.03663,-2.8025 0,-1.7738 0.77823,-2.62706 2.55144,-2.79744 1.69883,-0.16324 2.90521,0.42189 3.42253,1.66 0.50321,1.20436 0.47531,1.44614 -0.1669,1.44614 -0.36489,0 -0.6333,-0.25924 -0.81851,-0.79055 -0.38571,-1.10645 -1.89571,-1.57087 -3.09351,-0.95146 -0.78444,0.40565 -0.96948,0.78498 -0.84976,1.74201 0.0737,0.58947 0.69637,0.97844 2.5578,1.59788 2.73399,0.90982 3.6082,2.48865 2.57895,4.65764 -0.23791,0.50135 -0.76778,1.08489 -1.17749,1.29676 -1.06695,0.55174 -2.85741,0.48247 -3.89599,-0.15073 z m 10.26853,-4.33945 v -4.91419 h -1.45521 c -1.35704,0 -1.45521,-0.0426 -1.45521,-0.6309 v -0.6309 l 3.43958,-0.0185 3.43959,-0.0185 v 0.64939 c 0,0.61044 -0.087,0.6494 -1.44924,0.6494 h -1.44924 l -0.0721,4.82524 c -0.065,4.35174 -0.11755,4.83397 -0.53513,4.91419 -0.42755,0.0821 -0.46302,-0.28755 -0.46302,-4.82524 z m 5.29353,4.14779 c 0.001,-0.47533 0.88413,-2.05774 2.54653,-4.56406 1.39956,-2.11005 2.60208,-3.98529 2.67227,-4.16719 0.0964,-0.24982 -0.4663,-0.33073 -2.30034,-0.33073 -2.36655,0 -2.42582,-0.015 -2.34341,-0.59531 0.0821,-0.57795 0.17329,-0.59531 3.12725,-0.59531 h 3.04271 l 0.0643,0.66146 c 0.0451,0.46393 -0.75381,1.88613 -2.67537,4.7625 l -2.7397,4.10104 2.74151,0.0751 c 2.71757,0.0744 2.74152,0.0808 2.74152,0.7276 v 0.65251 h -3.43958 -3.43958 l 0.002,-0.72761 z m 10.30701,0 c -1.07311,-0.96161 -1.29907,-2.07722 -1.30673,-6.45143 -0.006,-3.35163 0.0301,-3.61668 0.50754,-3.74154 0.28261,-0.0739 0.58027,-0.0679 0.66145,0.0132 0.0812,0.0812 0.14762,1.98107 0.14762,4.22195 0,2.24089 0.11451,4.28831 0.25447,4.54983 0.42723,0.79829 1.68626,1.17632 2.74928,0.8255 0.50501,-0.16667 1.01604,-0.50564 1.13563,-0.75326 0.11958,-0.24763 0.27894,-2.35522 0.35413,-4.68356 0.12953,-4.01138 0.16444,-4.23333 0.66586,-4.23333 0.5076,0 0.52869,0.17252 0.51757,4.23333 -0.01,3.48359 -0.0924,4.38484 -0.4675,5.08875 -0.9434,1.77014 -3.72828,2.26664 -5.21932,0.93052 z m 10.59951,0.14941 c -1.88006,-1.27761 -2.60495,-3.27821 -2.24159,-6.18646 0.41926,-3.35565 3.53275,-5.33235 6.21458,-3.94551 0.98691,0.51035 2.05994,2.47147 1.5345,2.80451 -0.55247,0.35017 -0.74661,0.27921 -0.99206,-0.36257 -0.40642,-1.06273 -1.31313,-1.65365 -2.53736,-1.65365 -1.99641,0 -3.08708,1.52614 -3.10473,4.34434 -0.0125,1.9954 0.47058,3.19632 1.57737,3.9214 0.90087,0.59017 2.64767,0.56486 3.58913,-0.052 0.59849,-0.39214 0.71636,-0.66028 0.71636,-1.62957 v -1.1602 h -1.32292 c -1.14652,0 -1.32291,-0.0706 -1.32291,-0.52917 0,-0.47876 0.17639,-0.52916 1.85208,-0.52916 h 1.85208 v 2.09508 2.09509 l -0.97677,0.60368 c -1.46775,0.90712 -3.6516,0.99027 -4.83776,0.1842 z M 57.393939,119.79329 c 0,-0.52916 0.13229,-0.66146 0.66146,-0.66146 0.52916,0 0.66145,0.1323 0.66145,0.66146 0,0.52917 -0.13229,0.66146 -0.66145,0.66146 -0.52917,0 -0.66146,-0.13229 -0.66146,-0.66146 z m 4.23333,0.0309 c 0,-0.40182 0.18643,-0.67935 0.51385,-0.76497 0.64077,-0.16757 0.80907,-0.006 0.80907,0.77821 0,0.48213 -0.14489,0.61736 -0.66146,0.61736 -0.52054,0 -0.66146,-0.13435 -0.66146,-0.6306 z M 16.383519,62.466901 c 0,-25.199355 -0.0893,-45.727753 -0.19844,-45.618661 -0.10914,0.109093 -0.39173,0.692587 -0.62798,1.296653 -0.29411,0.752007 -0.62781,1.145102 -1.05834,1.246734 l -0.62878,0.148433 -0.0669,44.371926 -0.0669,44.371934 h 1.32368 1.32369 z m 3.43958,0.345371 v -45.47164 l -0.60313,0.115295 c -0.52634,0.100618 -0.67568,-0.08088 -1.17309,-1.425753 l -0.56997,-1.541048 -0.0175,46.897394 -0.0175,46.8974 h 1.19062 1.19063 z m 3.70417,-2.285648 c 0,-26.266509 -0.0909,-47.757289 -0.20192,-47.757289 -0.11106,0 -0.70637,0.645891 -1.32292,1.435313 l -1.12099,1.435313 v 46.321977 46.321982 h 1.32291 1.32292 z m 3.44468,2.142146 -0.004,-45.48285 -1.09131,-1.414542 c -0.60022,-0.777999 -1.13636,-1.414543 -1.19143,-1.414543 -0.0551,0 -0.10011,21.140117 -0.10011,46.978036 v 46.978039 l 1.19492,-0.0806 1.19492,-0.0806 z m 3.63684,0.106812 0.0701,-45.376039 -0.56534,-1.521354 c -0.31094,-0.836745 -0.65382,-1.521354 -0.76196,-1.521354 -0.10814,0 -0.45081,0.752534 -0.76149,1.672297 l -0.56487,1.672298 v 45.305739 45.305741 l 1.25677,-0.0806 1.25677,-0.0806 z m 3.50181,4.384027 V 26.035305 l -0.59531,-0.08455 c -0.57561,-0.08175 -0.59777,-0.191823 -0.6696,-3.325694 -0.0693,-3.02272 -0.1094,-3.241145 -0.59531,-3.241145 -0.51625,0 -0.52103,0.407973 -0.52103,44.449998 v 44.450006 h 1.19063 1.19062 z m 3.70417,-0.0184 V 25.998501 h -1.32292 -1.32291 v 41.142706 41.142713 h 1.32291 1.32292 z m 3.43958,0 V 25.998501 h -1.19062 -1.19063 v 41.142706 41.142713 h 1.19063 1.19062 z m 3.63873,-7.209895 -0.0669,-48.352602 -0.59103,-0.08399 -0.59102,-0.08399 -0.0704,7.227736 -0.0704,7.227736 -0.59531,0.08455 -0.59532,0.08455 v 41.124304 41.124312 h 1.32363 1.32363 z m 3.50502,7.240753 c 0,-40.775208 -0.004,-41.112971 -0.52479,-41.249084 -0.50464,-0.131967 -0.52751,-0.410028 -0.59531,-7.240754 l -0.0705,-7.103517 -0.59389,-0.08436 -0.59389,-0.08436 -0.0676,47.841651 c -0.0372,26.312907 -0.0295,48.109537 0.017,48.436967 0.0731,0.51505 0.24257,0.59531 1.25677,0.59531 h 1.17222 z m 3.63886,-0.097 0.067,-41.07656 h -1.32375 -1.32375 v 41.157203 41.15721 l 1.25677,-0.0806 1.25677,-0.0806 z m 3.50489,0.06615 V 25.998501 h -1.19062 -1.19063 v 41.142706 41.142713 h 1.19063 1.19062 z m 3.63886,-0.06615 0.067,-41.07656 h -1.32375 -1.32375 v 41.157203 41.15721 l 1.25677,-0.0806 1.25677,-0.0806 z m 3.50489,-6.98941 c 0,-26.509042 -0.0475,-48.148651 -0.10546,-48.088018 -0.058,0.06063 -0.59378,0.703373 -1.19062,1.42831 l -1.08517,1.318066 v 46.769953 46.769962 h 1.19063 1.19062 z m 3.63872,-1.361059 c 0.0499,-36.896378 -0.0104,-49.571372 -0.23786,-49.996381 -0.29562,-0.552366 -0.33509,-0.534127 -1.3229,0.611408 l -1.01819,1.180758 -7.2e-4,48.896264 -7.1e-4,48.896273 1.25677,-0.0806 1.25677,-0.0806 z m 3.50503,2.037188 V 13.239648 l -1.12447,-1.343081 -1.12448,-1.343081 -0.1323,48.269901 c -0.0728,26.548447 -0.0887,48.537793 -0.0353,48.865223 0.0834,0.51207 0.25917,0.59531 1.25678,0.59531 h 1.15977 z m 3.63886,6.346521 0.067,-41.043322 -0.79458,-0.158917 -0.79458,-0.158915 -0.006,-4.967552 c -0.005,-4.52282 -0.0522,-5.026771 -0.52328,-5.62901 -0.51403,-0.657145 -0.51744,-0.355505 -0.52329,46.250431 l -0.006,46.911898 1.25677,-0.0806 1.25677,-0.0806 z m 3.5049,0.03291 V 25.998501 h -1.32292 -1.32292 v 40.966316 c 0,22.531477 0.0794,41.045703 0.17639,41.142713 0.097,0.097 0.69233,0.17639 1.32292,0.17639 h 1.14653 z m 3.63881,-2.182812 c 0.0585,-37.734739 0.0181,-43.193227 -0.3196,-43.193227 -0.2991,0 -0.40402,0.46386 -0.46382,2.05052 l -0.0773,2.050521 -0.85989,0.08291 -0.8599,0.08291 v 41.14044 41.140441 l 1.25677,-0.0806 1.25677,-0.0806 z m 3.50494,-0.727604 c 0,-29.192359 -0.0893,-44.053123 -0.26459,-44.053123 -0.14552,0 -0.26458,-0.466513 -0.26458,-1.036694 0,-0.570181 -0.0761,-1.235008 -0.16911,-1.477392 -0.26663,-0.694827 -0.61581,0.06993 -0.62059,1.359177 -0.003,0.871139 -0.13819,1.181941 -0.66241,1.525425 l -0.65836,0.431375 -0.005,43.474262 c -0.003,23.910845 0.0754,43.554329 0.17329,43.652179 0.0978,0.0979 0.69385,0.17792 1.32444,0.17792 h 1.14654 z m 3.43958,0.555807 V 21.289285 l -1.19063,-0.09469 -1.19062,-0.0947 v 43.592008 43.592017 h 1.19062 1.19063 z m 3.63881,0.03951 -0.0669,-43.45781 h -1.19063 -1.19062 l -0.0679,43.127081 c -0.0374,23.719895 -0.0113,43.275921 0.0578,43.457821 0.0751,0.19747 0.60919,0.33073 1.32549,0.33073 h 1.19972 z m 3.549038,43.193302 c 0.0485,-0.14548 0.0577,-19.73127 0.0205,-43.523962 l -0.0677,-43.259442 h -1.18905 -1.18905 v 43.523956 43.523968 h 1.16858 c 0.64271,0 1.20826,-0.11903 1.25677,-0.26452 z m 3.66007,-43.273944 V 21.207007 l -1.25677,0.08064 -1.25678,0.08064 -0.0679,43.127081 c -0.0374,23.719895 -0.0113,43.275912 0.0578,43.457812 0.0751,0.19742 0.60903,0.33073 1.32471,0.33073 h 1.19893 z m 3.440383,43.009294 c 5.3e-4,-0.29104 0.002,-19.847065 0.003,-43.457819 l 0.002,-42.928643 -1.19353,-0.08064 -1.193553,-0.08064 v 43.538454 43.538458 h 1.190623 c 1.01397,0 1.19075,-0.0785 1.19143,-0.52917 z m 3.70337,-48.683339 c 0,-28.257499 -0.0994,-49.212498 -0.23346,-49.212498 -0.1284,0 -0.72371,0.490258 -1.32292,1.089461 l -1.08946,1.089461 v 47.946648 c 0,26.370657 0.0794,48.026037 0.17639,48.123047 0.097,0.097 0.69233,0.17639 1.32292,0.17639 h 1.14653 z m 3.50966,8.014827 0.0622,-41.06538 -0.66146,-0.07733 -0.66145,-0.07733 -0.0705,-6.775988 c -0.0663,-6.372275 -0.10181,-6.804283 -0.59532,-7.250902 -0.52312,-0.473426 -0.52477,-0.32293 -0.52477,47.999336 v 48.474256 l 1.19456,-0.0806 1.19455,-0.0806 z m 3.63409,0.05496 V 25.998501 h -1.32292 -1.32292 v 41.142706 41.142713 h 1.32292 1.32292 z m 3.43958,-1.338532 c 0,-28.253451 -0.0886,-42.426471 -0.26458,-42.317716 -0.14552,0.08994 -0.26459,0.620007 -0.26459,1.177933 0,1.040537 -0.29704,1.335609 -1.34455,1.335609 -0.49814,0 -0.50753,0.761127 -0.50753,41.142706 v 41.142712 h 1.19063 1.19062 z m 3.70417,-5.377484 c 0,-47.636206 -0.002,-47.859366 -0.52917,-47.997102 -0.51373,-0.134344 -0.52917,-0.0081 -0.52917,4.326845 v 4.465225 l -0.79375,0.586845 -0.79375,0.586845 v 42.768643 c 0,23.522753 0.0794,42.848027 0.17639,42.945037 0.097,0.097 0.69233,0.17639 1.32292,0.17639 h 1.14653 z m 3.43958,-0.03086 c 0,-42.530106 -0.0447,-47.889581 -0.39946,-47.889581 -0.21971,0 -0.59806,-0.231938 -0.84078,-0.515418 -1.14649,-1.338996 -1.12371,-2.311269 -1.1326,48.338854 l -0.008,47.955733 h 1.19063 1.19062 z m 3.70417,4.497917 V 21.500584 h -0.9044 c -0.49743,0 -1.09274,-0.07227 -1.32292,-0.160599 -0.38058,-0.146043 -0.41852,3.770853 -0.41852,43.215275 0,23.856732 0.0794,43.45526 0.17639,43.55227 0.097,0.097 0.69233,0.17639 1.32292,0.17639 h 1.14653 z m 3.43958,0 V 21.500584 h -1.19062 -1.19063 v 43.391665 43.391671 h 1.19063 1.19062 z m 3.70417,0 V 21.500584 h -1.32292 -1.32292 v 43.391665 43.391671 h 1.32292 1.32292 z m 3.3951,-1.653646 c -0.0245,-24.774921 -0.11376,-44.330935 -0.19843,-43.45781 l -0.15396,1.5875 -0.99061,0.08202 -0.9906,0.08202 -0.0677,42.780475 c -0.0373,23.52926 -0.0297,43.048362 0.0168,43.375792 0.0731,0.51505 0.24257,0.59531 1.25677,0.59531 h 1.17221 z m 3.73005,-1.852083 c -0.0105,-26.404156 -0.11796,-46.666158 -0.24598,-46.368227 -0.12507,0.291042 -0.23576,1.39237 -0.24599,2.447396 -0.0212,2.187773 -0.25622,2.368313 -1.37764,1.058333 l -0.73612,-0.859896 -0.0108,45.309894 -0.0108,45.3099 h 1.32291 1.32292 l -0.0186,-46.8974 z m 3.45818,2.579687 c 0,-43.306404 -0.0114,-44.317706 -0.50086,-44.317706 -0.67559,0 -0.82205,-0.493599 -0.82205,-2.770453 0,-1.534402 -0.1074,-2.062334 -0.52037,-2.558048 -0.51783,-0.621576 -0.5204,-0.393877 -0.52917,46.669645 l -0.009,47.294275 h 1.19063 1.19062 z m 3.63886,3.189068 c 0.0444,-27.153845 -0.0227,-41.085969 -0.19844,-41.26177 -0.14598,-0.145981 -0.2662,-0.747624 -0.26716,-1.336983 -0.001,-0.623904 -0.22135,-1.403162 -0.52742,-1.865313 -0.37163,-0.561131 -0.52619,-1.242093 -0.52743,-2.323602 -0.002,-1.703008 -0.68861,-3.77344 -1.02826,-3.100356 -0.11014,0.218281 -0.14932,20.792317 -0.0871,45.720083 l 0.11319,45.323216 1.2278,-0.0795 1.22781,-0.0795 z m 3.50489,-0.14636 V 25.733917 h -1.19062 -1.19063 v 41.274998 41.275005 h 1.19063 1.19062 z m 3.63885,-0.08068 0.067,-41.223383 -1.2576,0.08068 -1.2576,0.08068 -0.067,41.223383 -0.067,41.223385 1.25761,-0.0807 1.2576,-0.0807 z m 3.5049,-2.866475 V 19.839617 l -1.19062,1.278532 -1.19063,1.278532 v 42.943616 42.943623 h 1.19063 1.19062 z m 3.57188,1.095068 V 22.162043 l -0.66146,-0.08934 c -0.3638,-0.04914 -0.92935,-0.337782 -1.25677,-0.641433 l -0.59531,-0.552093 v 43.716866 43.716867 l 1.25677,-0.0806 1.25677,-0.0806 z m 3.57187,-3.329524 V 15.370702 l -1.04036,0.823985 -1.04037,0.823985 -0.17065,2.571685 c -0.19745,2.975659 -0.4578,87.866653 -0.27099,88.362833 0.0744,0.19761 0.6071,0.33073 1.32345,0.33073 h 1.19892 z m 3.63874,-1.631413 c 0.0368,-26.37565 -0.0277,-47.955727 -0.14335,-47.955727 -0.11561,0 -0.71125,0.510522 -1.32363,1.134494 l -1.11342,1.134494 v 46.901875 46.901883 l 1.25677,-0.0806 1.25677,-0.0806 z m 3.50501,1.048216 V 14.204309 l -1.15943,-0.969166 c -0.63769,-0.533041 -1.233,-0.895597 -1.32292,-0.805681 -0.22216,0.222168 -0.20932,95.455838 0.0129,95.678068 0.097,0.097 0.69232,0.17639 1.32291,0.17639 h 1.14652 z m 3.64164,1.719275 c 0.0458,-29.654298 -0.0209,-45.35762 -0.19394,-45.680976 -0.14504,-0.271007 -0.74198,-0.871539 -1.32653,-1.334515 l -1.06283,-0.841776 v 46.603394 46.603401 l 1.25677,-0.0806 1.25677,-0.0806 z"
       id="path917" />
  </g>
</svg>
